<svg version="1.1" id="Layer_1" xmlns:x="ns_extend;" xmlns:i="ns_ai;" xmlns:graph="ns_graphs;" xmlns="http://www.w3.org/2000/svg" xmlns:xlink="http://www.w3.org/1999/xlink" x="0px" y="0px" viewBox="0 0 42.6 50" style="enable-background:new 0 0 42.6 50;" xml:space="preserve">
 <style type="text/css">
  .st0{fill:#F96B13;}
	.st1{fill:#CC4E00;}
	.st2{fill:#FFCA73;}
 </style>
 <metadata>
  <sfw xmlns="ns_sfw;">
   <slices>
   </slices>
   <sliceSourceBounds bottomLeftOrigin="true" height="50" width="42.6" x="-172.6" y="20.7">
   </sliceSourceBounds>
  </sfw>
 </metadata>
 <g>
  <path class="st0" d="M0,12.5v25L21.3,50v-6.2l-16-9.4V15.6L0,12.5z">
  </path>
  <path class="st1" d="M37.3,15.6v25l5.3-3.1v-25L37.3,15.6z">
  </path>
  <path class="st2" d="M16,3.1l21.3,12.5l5.3-3.1L21.3,0L16,3.1z">
  </path>
  <path class="st2" d="M0,12.5l5.3,3.1l5.3-3.1L5.3,9.4L0,12.5z">
  </path>
  <path class="st1" d="M5.3,15.6v18.7l5.3-3.1V12.5L5.3,15.6z">
  </path>
  <path class="st1" d="M21.3,43.8V50l5.3-3.1v-6.3L21.3,43.8z">
  </path>
  <path class="st2" d="M5.3,34.4l16,9.4l5.3-3.1l-16-9.4L5.3,34.4z">
  </path>
  <path class="st0" d="M16,3.1v6.3l16,9.4v18.8l5.3,3.1v-25L16,3.1z">
  </path>
 </g>
</svg>